<svg width="18" height="19" viewBox="0 0 18 19" fill="none" xmlns="http://www.w3.org/2000/svg">
<path d="M2.01954 14.0206C2.01954 14.0206 0.316539 16.5606 1.31254 17.5556C2.30754 18.5516 4.84754 16.8486 4.84754 16.8486" stroke="#AF8F1D" stroke-width="2" stroke-linecap="round" stroke-linejoin="round"/>
<path fill-rule="evenodd" clip-rule="evenodd" d="M17.3488 0.256303C17.4534 0.360962 17.5298 0.490414 17.5708 0.632581C17.6119 0.774749 17.6163 0.925 17.5836 1.06932L17.3058 2.2976C16.9768 3.74924 16.2436 5.0781 15.191 6.1305L11.1224 10.1991C12.0222 11.3135 12.3139 12.3718 12.0861 13.381C11.8487 14.4323 11.0699 15.2086 10.5863 15.6913L10.5337 15.7439C10.4395 15.8379 10.3252 15.9092 10.1994 15.9525C10.0735 15.9957 9.93946 16.0097 9.80739 15.9934C9.67532 15.9771 9.5487 15.9309 9.43714 15.8584C9.32557 15.7859 9.232 15.6889 9.16352 15.5748L7.41749 12.6618C7.3807 12.6005 7.33657 12.5441 7.28607 12.4936L5.03454 10.2437L4.36872 9.84425L7.39909 6.47743C7.40111 6.47892 7.40316 6.48038 7.40522 6.48181L11.4738 2.41499C12.5264 1.36224 13.8555 0.629004 15.3075 0.300108L16.5358 0.0215106C16.6801 -0.0110894 16.8304 -0.00657275 16.9726 0.0346387C17.1148 0.0758502 17.2442 0.151537 17.3488 0.256303ZM6.67457 5.97368C5.82564 5.47869 5.01001 5.34114 4.22416 5.51811C3.17286 5.75641 2.39665 6.53438 1.91393 7.01886L1.86137 7.07055C1.76734 7.16471 1.696 7.27906 1.65276 7.40491C1.60952 7.53076 1.59552 7.66481 1.61182 7.79688C1.62812 7.92895 1.67429 8.05557 1.74682 8.16713C1.81936 8.2787 1.91636 8.37227 2.03045 8.44075L3.6039 9.38518L6.67457 5.97368Z" fill="#AF8F1D"/>
</svg>
