<svg width="12" height="12" viewBox="0 0 12 12" fill="none" xmlns="http://www.w3.org/2000/svg">
<path d="M6.66663 0.672667C6.66663 0.495856 6.59639 0.326287 6.47137 0.201263C6.34635 0.0762384 6.17678 0.00600052 5.99997 0.00600052C5.82315 0.00600052 5.65359 0.0762384 5.52856 0.201263C5.40354 0.326287 5.3333 0.495856 5.3333 0.672667L5.3313 6.008C5.3313 6.18481 5.40154 6.35438 5.52656 6.47941C5.65159 6.60443 5.82115 6.67467 5.99797 6.67467C6.17478 6.67467 6.34435 6.60443 6.46937 6.47941C6.59439 6.35438 6.66463 6.18481 6.66463 6.008L6.66663 0.673334V0.672667Z" fill="#AF8F1D"/>
<path d="M0.666748 6.66133C0.666748 5.188 1.26341 3.85467 2.22875 2.89L3.17141 3.83267C2.61198 4.39207 2.23099 5.1048 2.07663 5.88073C1.92226 6.65666 2.00146 7.46094 2.3042 8.19186C2.60695 8.92278 3.11964 9.54751 3.77744 9.98705C4.43524 10.4266 5.20861 10.6612 5.99975 10.6612C6.79088 10.6612 7.56425 10.4266 8.22206 9.98705C8.87986 9.54751 9.39255 8.92278 9.69529 8.19186C9.99804 7.46094 10.0772 6.65666 9.92287 5.88073C9.76851 5.1048 9.38752 4.39207 8.82808 3.83267L9.77141 2.89C10.3916 3.51019 10.8492 4.27375 11.1038 5.11305C11.3584 5.95234 11.402 6.84147 11.2309 7.70167C11.0598 8.56188 10.6792 9.36661 10.1228 10.0446C9.56639 10.7226 8.85138 11.2528 8.04109 11.5885C7.23079 11.9241 6.35023 12.0548 5.47739 11.9688C4.60456 11.8828 3.76639 11.583 3.03713 11.0957C2.30788 10.6085 1.71004 9.94887 1.29657 9.17539C0.883109 8.40191 0.66678 7.53839 0.666748 6.66133Z" fill="#AF8F1D"/>
</svg>
