<svg width="16" height="16" viewBox="0 0 16 16" fill="none" xmlns="http://www.w3.org/2000/svg">
<path d="M11.9986 5.376L4.00189 5.40667L3.81722 3.19C3.75765 2.68455 3.89301 2.1754 4.19574 1.76628C4.49846 1.35715 4.94578 1.07883 5.44655 0.987999L5.97255 0.892666C7.31403 0.649059 8.68841 0.649059 10.0299 0.892666L10.5539 0.987999C11.0544 1.07897 11.5015 1.35726 11.804 1.76623C12.1066 2.17519 12.242 2.68409 12.1826 3.18933L11.9986 5.376Z" fill="#AF8F1D"/>
<path opacity="0.25" d="M4.0061 5.406C4.03665 6.44767 4.47292 7.4362 5.22189 8.16081C5.97087 8.88541 6.97328 9.28876 8.01539 9.28485C9.0575 9.28094 10.0569 8.87007 10.8004 8.13986C11.5439 7.40965 11.9727 6.41787 11.9954 5.376L4.0061 5.406Z" fill="#AF8F1D"/>
<path d="M11.4654 8.92333L8.4721 11.9167C8.41019 11.9786 8.33666 12.0278 8.25573 12.0614C8.1748 12.0949 8.08804 12.1122 8.00043 12.1122C7.91282 12.1122 7.82607 12.0949 7.74514 12.0614C7.66421 12.0278 7.59068 11.9786 7.52877 11.9167L4.53477 8.92333C3.66249 9.45158 2.92382 10.1739 2.37621 11.0342C1.8286 11.8945 1.48681 12.8694 1.37743 13.8833C1.36732 13.9764 1.37693 14.0706 1.40562 14.1597C1.43431 14.2488 1.48145 14.3308 1.54396 14.4005C1.60647 14.4702 1.68296 14.5259 1.76844 14.5641C1.85393 14.6023 1.94649 14.622 2.0401 14.622H13.9601C14.0537 14.622 14.1463 14.6023 14.2318 14.5641C14.3172 14.5259 14.3937 14.4702 14.4562 14.4005C14.5188 14.3308 14.5659 14.2488 14.5946 14.1597C14.6233 14.0706 14.6329 13.9764 14.6228 13.8833C14.5134 12.8694 14.1716 11.8945 13.624 11.0342C13.0764 10.1739 12.3377 9.45158 11.4654 8.92333Z" fill="#AF8F1D"/>
<path opacity="0.5" d="M10.46 8.436C9.75652 8.98302 8.8908 9.28001 7.99967 9.28001C7.10853 9.28001 6.24281 8.98302 5.53933 8.436C5.19143 8.56986 4.85537 8.73265 4.53467 8.92266L7.52867 11.9173C7.65369 12.0423 7.82323 12.1125 8 12.1125C8.17678 12.1125 8.34632 12.0423 8.47133 11.9173L11.4653 8.92333C11.1447 8.73309 10.8086 8.57007 10.4607 8.436H10.46Z" fill="#AF8F1D"/>
</svg>
