<svg width="14" height="14" viewBox="0 0 14 14" fill="none" xmlns="http://www.w3.org/2000/svg">
<path d="M1.28675 8.90666L0.333416 7.95333L1.28675 7L3.66675 9.38L9.38008 3.66667L7.00008 1.28667L7.95342 0.333332L8.90675 1.28667L9.86008 0.333332L11.2867 1.76L12.2401 0.806665L13.1934 1.76L12.2401 2.71333L13.6667 4.14L12.7134 5.09333L13.6667 6.04666L12.7134 7L10.3334 4.62L4.62008 10.3333L7.00008 12.7133L6.04675 13.6667L5.09342 12.7133L4.14008 13.6667L2.71342 12.24L1.76008 13.1933L0.806748 12.24L1.76008 11.2867L0.333416 9.86L1.28675 8.90666Z" fill="#AF8F1D"/>
</svg>
