<svg width="79" height="85" viewBox="0 0 79 85" fill="none" xmlns="http://www.w3.org/2000/svg">
<path d="M78.5714 42.1371C78.5714 65.4086 60.9825 84.2742 39.2857 84.2742C17.5889 84.2742 0 65.4086 0 42.1371C0 18.8655 17.5889 -2.28882e-05 39.2857 -2.28882e-05C60.9825 -2.28882e-05 78.5714 18.8655 78.5714 42.1371Z" fill="#373737"/>
<path d="M76.7348 54.9021C74.315 63.0762 69.6393 70.1645 63.4886 75.3347L40.5823 50.7659V41.1701H45.7497C46.1498 41.1701 46.4728 40.8237 46.4728 40.3945V36.7134C46.4728 36.2842 46.1498 35.9378 45.7497 35.9378H40.5823V32.5513C40.5823 28.1308 42.5828 27.619 44.0819 27.619C44.9496 27.619 45.7305 27.8206 46.4005 28.2291C46.627 28.3635 46.9018 28.3635 47.1235 28.2239C47.3453 28.0843 47.4802 27.8258 47.4802 27.5518V23.6586C47.4802 23.6069 47.4754 23.5552 47.461 23.5035L76.7348 54.9021Z" fill="black"/>
<path d="M63.4886 75.3351C60.1433 78.1425 56.3593 80.3812 52.2717 81.9167L35.979 64.4415H35.8633C35.4632 64.4415 35.1402 64.0951 35.1402 63.666V44.9292L31.6358 41.1704H31.5684C31.1683 41.1704 30.8453 40.824 30.8453 40.3949V36.7137C30.8453 36.2846 31.1683 35.9382 31.5684 35.9382H35.1402V32.3449C35.1402 29.3203 35.979 26.88 37.6323 25.0963C39.2857 23.3126 41.3729 22.4078 43.8361 22.4078C45.1713 22.4078 46.2173 22.5836 47.032 22.9403C47.2585 23.0386 47.4176 23.2557 47.461 23.5039C47.4755 23.5556 47.4803 23.6073 47.4803 23.659V27.5521C47.4803 27.8262 47.3453 28.0847 47.1236 28.2243C46.9018 28.3639 46.6271 28.3639 46.4005 28.2294C45.7305 27.821 44.9496 27.6193 44.0819 27.6193C42.5828 27.6193 40.5824 28.1312 40.5824 32.5517V35.9382H45.7498C46.1499 35.9382 46.4728 36.2846 46.4728 36.7137V40.3949C46.4728 40.824 46.1499 41.1704 45.7498 41.1704H40.5824V50.7663L63.4886 75.3351Z" fill="black"/>
<path d="M44.082 26.8436C45.0798 26.8436 45.9716 27.0815 46.7573 27.552V23.6588C46.0391 23.3434 45.0654 23.1831 43.8362 23.1831C41.561 23.1831 39.6666 24.0052 38.1434 25.6442C36.625 27.2831 35.8634 29.5166 35.8634 32.3447V36.7135H31.5685V40.3947H35.8634V63.6658H39.8642V40.3947H45.7499V36.7135H39.8642V32.5515C39.8642 28.7463 41.267 26.8436 44.082 26.8436Z" fill="#D26A6A"/>
<path d="M46.0342 26.3784C45.4268 26.1716 44.7712 26.0682 44.0819 26.0682C41.826 26.0682 39.1363 27.1901 39.1363 32.5516V36.7136C39.1363 37.1428 39.4641 37.4892 39.8593 37.4892H45.0267V39.6193H39.8593C39.4641 39.6193 39.1363 39.9709 39.1363 40.3948V62.8903H36.5863V40.3948C36.5863 39.9709 36.2634 39.6193 35.8633 39.6193H32.2914V37.4892H35.8633C36.2634 37.4892 36.5863 37.1428 36.5863 36.7136V32.3448C36.5863 29.708 37.2612 27.6968 38.6542 26.1923C40.0473 24.6878 41.7441 23.9588 43.8361 23.9588C44.7182 23.9588 45.4557 24.0467 46.0342 24.2121V26.3784ZM47.461 23.5038C47.4176 23.2556 47.2585 23.0385 47.032 22.9402C46.2174 22.5835 45.1713 22.4077 43.8361 22.4077C41.3729 22.4077 39.2857 23.3125 37.6323 25.0962C35.979 26.8799 35.1402 29.3203 35.1402 32.3448V35.9381H31.5684C31.1683 35.9381 30.8453 36.2845 30.8453 36.7136V40.3948C30.8453 40.8239 31.1683 41.1704 31.5684 41.1704H35.1402V63.6659C35.1402 64.095 35.4632 64.4414 35.8633 64.4414H39.8593C40.2594 64.4414 40.5824 64.095 40.5824 63.6659V41.1704H45.7498C46.1499 41.1704 46.4728 40.8239 46.4728 40.3948V36.7136C46.4728 36.2845 46.1499 35.9381 45.7498 35.9381H40.5824V32.5516C40.5824 28.1311 42.5828 27.6193 44.0819 27.6193C44.9496 27.6193 45.7305 27.8209 46.4005 28.2294C46.6271 28.3638 46.9018 28.3638 47.1236 28.2242C47.3453 28.0846 47.4803 27.8261 47.4803 27.5521V23.6589C47.4803 23.6072 47.4755 23.5555 47.461 23.5038Z" fill="#AF8F1D"/>
<path d="M44.082 26.8436C45.0798 26.8436 45.9716 27.0815 46.7573 27.552V23.6588C46.0391 23.3434 45.0654 23.1831 43.8362 23.1831C41.561 23.1831 39.6666 24.0052 38.1434 25.6442C36.625 27.2831 35.8634 29.5166 35.8634 32.3447V36.7135H31.5685V40.3947H35.8634V63.6658H39.8642V40.3947H45.7499V36.7135H39.8642V32.5515C39.8642 28.7463 41.267 26.8436 44.082 26.8436Z" fill="#AF8F1D"/>
<path d="M46.0342 26.3784C45.4268 26.1716 44.7712 26.0682 44.0819 26.0682C41.826 26.0682 39.1363 27.1901 39.1363 32.5516V36.7136C39.1363 37.1428 39.4641 37.4892 39.8593 37.4892H45.0267V39.6193H39.8593C39.4641 39.6193 39.1363 39.9709 39.1363 40.3948V62.8903H36.5863V40.3948C36.5863 39.9709 36.2634 39.6193 35.8633 39.6193H32.2914V37.4892H35.8633C36.2634 37.4892 36.5863 37.1428 36.5863 36.7136V32.3448C36.5863 29.708 37.2612 27.6968 38.6542 26.1923C40.0473 24.6878 41.7441 23.9588 43.8361 23.9588C44.7182 23.9588 45.4557 24.0467 46.0342 24.2121V26.3784ZM47.461 23.5038C47.4176 23.2556 47.2585 23.0385 47.032 22.9402C46.2174 22.5835 45.1713 22.4077 43.8361 22.4077C41.3729 22.4077 39.2857 23.3125 37.6323 25.0962C35.979 26.8799 35.1402 29.3203 35.1402 32.3448V35.9381H31.5684C31.1683 35.9381 30.8453 36.2845 30.8453 36.7136V40.3948C30.8453 40.8239 31.1683 41.1704 31.5684 41.1704H35.1402V63.6659C35.1402 64.095 35.4632 64.4414 35.8633 64.4414H39.8593C40.2594 64.4414 40.5824 64.095 40.5824 63.6659V41.1704H45.7498C46.1499 41.1704 46.4728 40.8239 46.4728 40.3948V36.7136C46.4728 36.2845 46.1499 35.9381 45.7498 35.9381H40.5824V32.5516C40.5824 28.1311 42.5828 27.6193 44.0819 27.6193C44.9496 27.6193 45.7305 27.8209 46.4005 28.2294C46.6271 28.3638 46.9018 28.3638 47.1236 28.2242C47.3453 28.0846 47.4803 27.8261 47.4803 27.5521V23.6589C47.4803 23.6072 47.4755 23.5555 47.461 23.5038Z" fill="#AF8F1D"/>
</svg>
