<svg width="80" height="85" viewBox="0 0 80 85" fill="none" xmlns="http://www.w3.org/2000/svg">
<path d="M79.1429 42.1371C79.1429 65.4086 61.554 84.2742 39.8572 84.2742C18.1604 84.2742 0.571442 65.4086 0.571442 42.1371C0.571442 18.8655 18.1604 -2.28882e-05 39.8572 -2.28882e-05C61.554 -2.28882e-05 79.1429 18.8655 79.1429 42.1371Z" fill="#373737"/>
<path d="M78.8006 47.7157C76.4435 66.8299 62.1368 81.9062 44.1955 84.0156L23.7669 62.1043C21.1109 60.1035 19.3708 56.7945 19.3708 53.0565V31.7346C19.3708 25.6389 23.9935 20.6807 29.6766 20.6807H49.5557C53.0408 20.6807 56.1258 22.5472 57.9913 25.3959L78.8006 47.7157Z" fill="black"/>
<path d="M57.9334 53.0567C57.9334 58.0098 54.1736 62.0425 49.5557 62.0425H29.6766C25.0588 62.0425 21.2989 58.0098 21.2989 53.0567V31.7348C21.2989 26.7818 25.0588 22.749 29.6766 22.749H49.5557C54.1736 22.749 57.9334 26.7818 57.9334 31.7348V53.0567ZM57.9913 25.3962C56.1258 22.5474 53.0408 20.681 49.5557 20.681H29.6766C23.9935 20.681 19.3708 25.6392 19.3708 31.7348V53.0567C19.3708 56.7948 21.1109 60.1037 23.7669 62.1046C25.4396 63.3661 27.4786 64.1106 29.6766 64.1106H49.5557C55.2389 64.1106 59.8616 59.1524 59.8616 53.0567V31.7348C59.8616 29.3772 59.1674 27.1902 57.9913 25.3962Z" fill="#AF8F1D"/>
<path d="M57.9334 31.7346V53.0564C57.9334 58.0095 54.1736 62.0422 49.5557 62.0422H29.6766C25.0587 62.0422 21.2989 58.0095 21.2989 53.0564V31.7346C21.2989 26.7815 25.0587 22.7487 29.6766 22.7487H49.5557C54.1736 22.7487 57.9334 26.7815 57.9334 31.7346Z" fill="#373737"/>
<path d="M39.6162 50.7048C35.3376 50.7048 31.8694 46.9849 31.8694 42.3958C31.8694 37.8067 35.3376 34.0863 39.6162 34.0863C43.8947 34.0863 47.3629 37.8067 47.3629 42.3958C47.3629 46.9849 43.8947 50.7048 39.6162 50.7048Z" stroke="#AF8F1D" stroke-width="5.33333" stroke-miterlimit="10"/>
<path d="M51.1678 32.0922C50.0933 32.0922 49.2223 31.1579 49.2223 30.0055C49.2223 28.853 50.0933 27.9193 51.1678 27.9193C52.2422 27.9193 53.1133 28.853 53.1133 30.0055C53.1133 31.1579 52.2422 32.0922 51.1678 32.0922Z" fill="#AF8F1D"/>
</svg>
