<svg width="80" height="85" viewBox="0 0 80 85" fill="none" xmlns="http://www.w3.org/2000/svg">
<path d="M79.2857 42.1371C79.2857 65.4086 61.6968 84.2742 40 84.2742C18.3032 84.2742 0.714294 65.4086 0.714294 42.1371C0.714294 18.8655 18.3032 -2.28882e-05 40 -2.28882e-05C61.6968 -2.28882e-05 79.2857 18.8655 79.2857 42.1371Z" fill="#373737"/>
<path d="M76.9621 56.4484C75.9306 59.504 74.5857 62.3941 72.9564 65.0775C72.7058 65.4963 72.4455 65.9047 72.1803 66.3131C70.8649 68.3244 69.3947 70.2011 67.7794 71.9331C67.2154 72.5381 66.637 73.1223 66.0392 73.6858C62.9976 76.5812 59.5318 78.975 55.7526 80.7483C52.952 82.0667 49.9784 83.0439 46.8736 83.6333L24.6326 59.778C24.4451 59.7263 24.2325 59.6229 24.0541 59.4368C23.7075 59.0697 23.6685 58.5682 23.6733 58.2218C23.6834 53.5583 23.6834 48.8948 23.6781 44.2261V34.8939C23.6781 33.5083 24.0064 33.1515 25.2785 33.1463H27.1632C27.5248 33.1463 27.8863 33.1463 28.2478 33.1515L25.9244 30.6595C24.0493 29.7702 23.1821 27.7745 23.1768 25.9081C23.172 23.3437 24.8254 20.7017 28.0025 20.6138H28.0068C29.3473 20.6138 30.591 21.167 31.5256 22.1752C31.9792 22.6612 32.3355 23.2247 32.5765 23.8348L41.2627 33.1515C41.6676 33.1515 42.0827 33.1463 42.5069 33.1412C42.6852 33.1412 43.215 33.1308 43.5914 33.5444C43.6391 33.6013 43.6825 33.6582 43.7211 33.7202L44.5791 34.6405C47.3363 32.2002 51.463 32.0348 54.6734 33.3428C55.2807 33.591 55.8346 33.9219 56.3359 34.3251C56.8324 34.7233 57.2759 35.1989 57.6668 35.7521L76.9621 56.4484Z" fill="black"/>
<path d="M32.2408 25.8781C32.237 28.3789 30.3763 30.3596 28.0303 30.3596C22.496 30.2298 22.5529 21.5429 28.0206 21.3898C30.3373 21.3873 32.2456 23.415 32.2408 25.8781Z" fill="#AF8F1D"/>
<path d="M31.5164 25.8767C31.5164 27.9551 29.983 29.5837 28.0457 29.5837C25.6881 29.5268 24.6281 27.6966 24.6228 25.9077C24.618 24.1498 25.6881 22.2317 28.0216 22.1645H28.0264C28.9563 22.1645 29.8389 22.5574 30.5036 23.2709C31.1548 23.974 31.5164 24.8892 31.5164 25.856V25.8767ZM32.5764 23.8344C32.3353 23.2244 31.9791 22.6608 31.526 22.1748C30.5909 21.1666 29.3472 20.6134 28.0072 20.6134H28.0023C24.8253 20.7013 23.1719 23.3433 23.1767 25.9077C23.182 27.7741 24.0497 29.7698 25.9243 30.6591C26.5225 30.9435 27.2214 31.1141 28.0313 31.1348C30.7933 31.1348 32.9572 28.8289 32.9625 25.8818C32.9673 25.1684 32.8318 24.4756 32.5764 23.8344Z" fill="#AF8F1D"/>
<path d="M31.6388 58.2929C31.6402 58.8802 31.4276 59.0611 30.9037 59.056C28.9789 59.0348 27.0532 59.0306 25.127 59.0575C24.5418 59.0663 24.3923 58.8052 24.3948 58.2256C24.4169 50.4491 24.3952 42.6716 24.4025 34.8936C24.4025 33.934 24.4121 33.9242 25.2783 33.9226C27.164 33.92 29.0512 33.934 30.9369 33.9154C31.4358 33.9102 31.6388 34.0875 31.6388 34.6444C31.6286 42.5269 31.6286 50.4099 31.6388 58.2929Z" fill="#AF8F1D"/>
<path d="M30.9138 58.2784H30.9085C28.7929 58.2577 26.8985 58.2577 25.1193 58.2835V58.2267C25.1294 53.5631 25.1294 48.8945 25.1241 44.2258V34.6971H27.1636C28.0072 34.7023 28.8507 34.7023 29.6895 34.6971C30.0992 34.6971 30.5036 34.6971 30.9138 34.6919V36.0103C30.9037 43.4347 30.9037 50.8591 30.9138 58.2784ZM32.1136 33.6837L32.0895 33.6527C32.0611 33.6062 32.0317 33.57 31.9931 33.5286C31.6224 33.1305 31.1018 33.1409 30.9278 33.1409C30.0365 33.146 29.1448 33.1512 28.2482 33.1512C27.8867 33.146 27.5251 33.146 27.1636 33.146H25.2789C24.0063 33.1512 23.678 33.508 23.678 34.8941V44.2258C23.6833 48.8945 23.6833 53.558 23.6732 58.2215C23.6689 58.5679 23.7074 59.0694 24.0545 59.4365C24.2329 59.6226 24.4449 59.726 24.6329 59.7777C24.8161 59.8294 24.9795 59.8346 25.0808 59.8346H25.1391C26.9033 59.8087 28.7881 59.8087 30.8994 59.8294C31.1982 59.8346 31.6509 59.7984 31.9883 59.4365C32.3262 59.0797 32.3599 58.5886 32.3599 58.3559V58.2892C32.3498 51.3813 32.3498 44.4688 32.3599 37.5614V34.6454C32.3599 34.4851 32.3599 34.0508 32.1136 33.6837Z" fill="#AF8F1D"/>
<path d="M59.0398 50.9266C59.0398 53.3312 59.0413 55.7349 59.0388 58.14C59.0388 59.0133 59.0094 59.0464 58.2213 59.0474C56.3332 59.05 54.446 59.05 52.5579 59.0464C51.8349 59.0448 51.7847 58.9931 51.7838 58.216C51.7799 54.1455 51.7813 50.075 51.7813 46.004C51.7813 45.0108 51.7471 44.0223 51.5148 43.0529C51.0993 41.3198 50.1285 40.3287 48.6399 40.1188C44.7904 39.5904 43.4364 42.7096 43.4889 46.1343C43.4595 50.0988 43.4759 54.0644 43.4725 58.0299C43.4725 59.0448 43.4701 59.0474 42.5167 59.0474C40.6878 59.0484 38.8585 59.035 37.0292 59.0552C36.5004 59.0614 36.2975 58.8628 36.2989 58.2832C36.3095 50.4163 36.3095 42.5488 36.2975 34.6813C36.2965 34.0976 36.5019 33.9078 37.0292 33.914C38.8585 33.9368 40.6864 33.9342 42.5157 33.9156C43.017 33.9104 43.2344 34.0966 43.2151 34.6508C43.1891 35.3658 43.2079 36.0845 43.2166 36.8011C43.219 36.9376 43.1799 37.1268 43.352 37.1795C43.4865 37.2214 43.5564 37.0782 43.6176 36.9758C45.9685 33.0118 50.8795 32.623 54.4166 34.0697C56.0989 34.7583 57.2486 36.0809 57.9639 37.8429C58.765 39.8174 58.9608 41.9185 59.0104 44.0295C59.0663 46.3272 59.0234 48.6279 59.0234 50.9266H59.0398Z" fill="#AF8F1D"/>
<path d="M58.3172 52.8962V58.2732H58.2208C57.1603 58.2732 56.0999 58.2732 55.0394 58.2681C54.2103 58.2732 53.386 58.2681 52.5569 58.2681H52.5087V55.5537C52.5039 53.2426 52.5039 50.9316 52.5039 48.6205V46.0044C52.5039 45.7407 52.5039 45.4667 52.4943 45.1978C52.4702 44.4326 52.4027 43.6416 52.2147 42.8609C52.2099 42.8454 52.2099 42.835 52.205 42.8195C51.7326 40.9065 50.6433 39.7381 49.0188 39.402C48.9272 39.3813 48.8308 39.3658 48.7296 39.3503C48.1222 39.2676 47.5582 39.2624 47.0328 39.34C46.0832 39.4692 45.2686 39.8622 44.6034 40.5033C43.5477 41.5166 42.9211 43.1401 42.7909 45.1306C42.7716 45.4563 42.762 45.7872 42.7668 46.1284C42.762 46.9867 42.7572 47.8501 42.7572 48.7135C42.7475 50.6472 42.7475 52.5757 42.7475 54.4628C42.7475 55.6519 42.7524 56.8411 42.7475 58.0302V58.2732H42.5162L40.8291 58.2681C39.5613 58.2681 38.2936 58.2629 37.021 58.2784C37.0258 52.9945 37.0306 47.7364 37.0258 42.5662C37.0306 41.3564 37.0258 40.1465 37.0258 38.947C37.0258 37.5201 37.021 36.1034 37.021 34.692C38.7322 34.7127 40.5206 34.7127 42.4921 34.692C42.4728 35.271 42.4776 35.8501 42.4872 36.4085L42.4921 36.8479C42.468 37.6286 42.9452 37.8613 43.1525 37.9233C43.3453 37.9854 43.8369 38.0578 44.2274 37.3908C44.3575 37.1737 44.4925 36.9669 44.6419 36.7756C44.9312 36.3878 45.2589 36.0466 45.6108 35.7467C47.9342 33.7717 51.4241 33.6734 54.1573 34.7954C55.5745 35.3744 56.6301 36.5015 57.3001 38.1508C58.0955 40.1052 58.2449 42.2301 58.2883 44.05C58.3269 45.6373 58.3172 47.2607 58.3076 48.8273C58.3076 49.0082 58.3028 49.184 58.3028 49.3598C58.3028 49.882 58.2979 50.4042 58.2979 50.9264L58.3028 51.4279L58.3172 52.8962ZM59.7489 50.2077C59.7489 49.7528 59.7537 49.2978 59.7537 48.8376C59.7633 47.2556 59.773 45.6218 59.7344 44.0087C59.6862 42.0388 59.5175 39.7329 58.6257 37.5356C58.3558 36.8738 58.0376 36.2792 57.6665 35.7519C57.276 35.1987 56.8326 34.723 56.3361 34.3249C55.8347 33.9216 55.2804 33.5907 54.673 33.3426C51.4627 32.0345 47.3365 32.1999 44.5793 34.6403C44.3527 34.8419 44.131 35.0642 43.9237 35.2969C43.9285 35.0901 43.9285 34.8833 43.9382 34.6816C43.9478 34.2887 43.8803 33.9733 43.7213 33.72C43.6827 33.6579 43.6393 33.6011 43.5911 33.5442C43.2151 33.1306 42.6849 33.1409 42.5065 33.1409C42.0823 33.1461 41.6678 33.1513 41.2629 33.1513C39.7734 33.1616 38.3803 33.1564 37.0355 33.1409C36.7511 33.1409 36.2883 33.1719 35.9509 33.5338C35.5749 33.932 35.5749 34.4955 35.5749 34.6816V37.3908C35.5797 38.5903 35.5797 39.8001 35.5797 41.0151C35.5845 46.6817 35.5797 52.4671 35.5749 58.2784C35.5749 58.4645 35.5749 59.0333 35.9509 59.4365C36.3028 59.8036 36.7752 59.8295 36.9872 59.8295H37.0355C38.2984 59.8191 39.5613 59.8191 40.8291 59.8191L42.5162 59.8243C43.8659 59.8243 44.1936 59.4727 44.1936 58.0302C44.1985 56.8411 44.1936 55.6519 44.1936 54.4576C44.1936 53.0772 44.1936 51.6709 44.1985 50.2594C44.1985 49.0548 44.2033 47.8501 44.2081 46.6506C44.2129 46.4749 44.2129 46.2991 44.2129 46.1233C44.1792 44.1121 44.6612 42.53 45.5674 41.6614C46.2664 40.9893 47.2401 40.7256 48.4645 40.8755C48.4934 40.8807 48.5175 40.8807 48.5464 40.8859C49.7322 41.0565 50.4745 41.8268 50.812 43.2435C50.8264 43.3107 50.8409 43.3727 50.8553 43.4399C51.0241 44.2258 51.0578 45.0375 51.0578 46.0044V48.6205C51.0578 50.4145 51.0578 52.2086 51.0626 54.0027C51.0578 55.2073 51.0578 56.4171 51.0626 57.6218V58.2164C51.0626 59.4159 51.4386 59.8191 52.5569 59.8191H53.1113C54.2392 59.8243 55.3624 59.8243 56.4903 59.8243H58.2208C59.4163 59.8191 59.7633 59.4417 59.7633 58.1388V50.9264L59.7489 50.2077ZM52.2147 42.8609C52.2099 42.8454 52.2099 42.835 52.205 42.8195C51.7326 40.9065 50.6433 39.7381 49.0188 39.402C48.9272 39.3813 48.8308 39.3658 48.7296 39.3503C48.1222 39.2676 47.5582 39.2624 47.0328 39.34L47.7077 40.0638C48.0017 40.0586 48.3102 40.0741 48.638 40.1207C50.1275 40.3275 51.1012 41.3202 51.5157 43.0522C51.617 43.4865 51.6844 43.9259 51.7182 44.3654L52.4943 45.1978C52.4702 44.4326 52.4027 43.6416 52.2147 42.8609Z" fill="#AF8F1D"/>
</svg>
