<svg width="79" height="85" viewBox="0 0 79 85" fill="none" xmlns="http://www.w3.org/2000/svg">
<path d="M78.7143 42.1371C78.7143 65.4086 61.1254 84.2742 39.4286 84.2742C17.7318 84.2742 0.142868 65.4086 0.142868 42.1371C0.142868 18.8655 17.7318 -2.28882e-05 39.4286 -2.28882e-05C61.1254 -2.28882e-05 78.7143 18.8655 78.7143 42.1371Z" fill="#373737"/>
<path d="M78.5599 45.8494C77.0463 64.4776 64.2339 79.6263 47.5121 83.3799L23.8298 57.9787C23.1555 57.5754 22.4994 57.1256 21.8631 56.6345C21.6029 56.4277 21.5016 56.0657 21.6125 55.74C21.7234 55.4143 22.0174 55.2127 22.3404 55.2333C25.5555 55.4712 28.4188 54.8611 31.0218 53.3824L29.3684 51.8107C27.9898 50.9472 26.7943 49.7116 25.9942 47.8193C25.6669 47.2609 25.6134 46.7697 25.8351 46.3613C26.0327 45.989 26.3605 45.8288 26.7558 45.7719C24.4083 44.1071 23.0543 41.7753 22.8031 38.9059C22.7115 38.3113 22.832 37.8615 23.1502 37.5719C23.5647 37.2049 24.0709 37.2721 24.6209 37.453C22.6392 34.6043 22.2247 31.1195 23.584 27.9192C23.7093 27.6142 23.9504 27.0144 24.5336 26.9162C25.1265 26.8128 25.5464 27.3246 25.7291 27.5469C28.8575 31.3367 32.7378 33.8494 37.2593 35.0024C37.5196 35.0179 37.8522 35.0954 38.3776 35.2247C38.8307 35.3384 39.7948 35.5711 40.272 35.5607C39.761 31.7813 41.559 28.1363 44.8802 26.2441C48.2255 24.3363 52.0915 24.7964 54.7426 27.4125C55.5476 27.9192 56.7773 27.2729 57.9631 26.6422C58.488 26.363 58.9845 26.0993 59.4666 25.9287C59.6502 25.8615 59.8522 25.877 60.0257 25.97C60.0643 25.9907 60.098 26.0114 60.1269 26.0372C60.2137 26.1096 60.2913 26.2027 60.339 26.3061L78.5599 45.8494Z" fill="black"/>
<path d="M61.5875 30.2767C61.0573 31.5537 60.1414 32.4275 59.3273 33.1978C58.3097 34.1646 57.6927 34.8057 57.7361 35.7416C57.9915 44.7222 53.1423 53.1341 45.0827 57.7097C42.8894 58.9557 40.6046 59.8192 38.3101 60.2948C36.8544 60.605 35.389 60.7601 33.9429 60.7601C30.3759 60.7601 26.9052 59.8295 23.8298 57.9786C23.1555 57.5753 22.4994 57.1255 21.8631 56.6343C21.6029 56.4275 21.5016 56.0656 21.6125 55.7399C21.7234 55.4141 22.0174 55.2125 22.3404 55.2332C25.5555 55.471 28.4188 54.8609 31.0218 53.3823C31.2676 53.2427 31.5086 53.0979 31.7497 52.9428C30.9254 52.6429 30.1204 52.281 29.3684 51.8105C27.9898 50.9471 26.7944 49.7114 25.9942 47.8191C25.6664 47.2608 25.6134 46.7696 25.8351 46.3611C26.0327 45.9889 26.3605 45.8286 26.7558 45.7717C24.4083 44.1069 23.0543 41.7752 22.8031 38.9057C22.7115 38.3111 22.832 37.8613 23.1502 37.5718C23.5647 37.2047 24.0709 37.2719 24.6209 37.4529C22.6392 34.6041 22.2247 31.1194 23.584 27.919C23.7093 27.614 23.9504 27.0143 24.5336 26.916C25.1265 26.8126 25.5459 27.3245 25.7291 27.5468C28.8575 31.3365 32.7378 33.8493 37.2593 35.0022C37.5196 35.0177 37.8522 35.0953 38.3776 35.2245C38.8307 35.3383 39.7948 35.5709 40.272 35.5606C39.761 31.7812 41.559 28.1362 44.8802 26.2439C48.2256 24.3361 52.0915 24.7962 54.7426 27.4124C55.5476 27.919 56.7773 27.2728 57.9626 26.642C58.488 26.3628 58.9845 26.0991 59.4666 25.9285C59.6497 25.8613 59.8522 25.8768 60.0257 25.9699C60.0643 25.9906 60.098 26.0112 60.127 26.0371C60.2137 26.1095 60.2913 26.2025 60.339 26.3059C60.3926 26.4197 60.421 26.5489 60.4162 26.6782C60.3969 27.7536 60.0932 28.4361 58.9315 29.8424C59.1918 29.7596 59.4569 29.6614 59.7269 29.5632C60.0503 29.4494 60.3776 29.3305 60.715 29.2219C60.985 29.1289 61.279 29.2168 61.4718 29.4443C61.6598 29.6717 61.7032 29.9975 61.5875 30.2767Z" fill="#AF8F1D"/>
</svg>
